<?xml version="1.0" encoding="utf-8"?>
<!-- Generator: Adobe Illustrator 24.3.0, SVG Export Plug-In . SVG Version: 6.00 Build 0)  -->
<svg version="1.1" id="Layer_1" xmlns="http://www.w3.org/2000/svg" xmlns:xlink="http://www.w3.org/1999/xlink" x="0px" y="0px"
	 viewBox="0 0 266 73" style="enable-background:new 0 0 266 73;" xml:space="preserve">
<style type="text/css">
	.st0{fill:#FFFFFF;}
	.st1{fill:#5CE1E6;}
</style>
<g>
	<path class="st0" d="M36.1,0C28.9,0,22,2.1,16,6.1S5.5,15.7,2.7,22.3C0,28.9-0.7,36.1,0.7,43.1c1.4,7,4.8,13.4,9.9,18.5
		c5,5,11.5,8.5,18.5,9.9c7,1.4,14.2,0.7,20.8-2.1c6.6-2.7,12.2-7.4,16.2-13.3c4-5.9,6.1-12.9,6.1-20h-18c0,3.6-1.1,7.1-3,10
		c-2,3-4.8,5.3-8.1,6.6c-3.3,1.4-6.9,1.7-10.4,1c-3.5-0.7-6.7-2.4-9.2-4.9c-2.5-2.5-4.2-5.7-4.9-9.2c-0.7-3.5-0.3-7.1,1-10.4
		c1.4-3.3,3.7-6.1,6.6-8.1c3-2,6.5-3,10-3V0z"/>
	<path class="st1" d="M36.1,0c-4.7,0-9.4,0.9-13.8,2.7c-4.4,1.8-8.4,4.5-11.7,7.8c-3.3,3.3-6,7.3-7.8,11.7C0.9,26.6,0,31.3,0,36.1
		h18c0-2.4,0.5-4.7,1.4-6.9c0.9-2.2,2.2-4.2,3.9-5.9c1.7-1.7,3.7-3,5.9-3.9c2.2-0.9,4.5-1.4,6.9-1.4V0z"/>
	<circle class="st1" cx="36.1" cy="36.1" r="11.3"/>
	<path class="st0" d="M47.3,36.1c0-1.5-0.3-2.9-0.9-4.3c-0.6-1.4-1.4-2.6-2.4-3.7c-1-1-2.3-1.9-3.7-2.4s-2.8-0.9-4.3-0.9
		c-1.5,0-2.9,0.3-4.3,0.9c-1.4,0.6-2.6,1.4-3.7,2.4c-1,1-1.9,2.3-2.4,3.7c-0.6,1.4-0.9,2.8-0.9,4.3h11.3H47.3z"/>
</g>
<path class="st0" d="M102.2,26.9c2,1.1,3.6,2.6,4.8,4.6c1.1,2,1.7,4.2,1.7,6.8c0,2.5-0.6,4.8-1.7,6.8c-1.1,2-2.7,3.5-4.8,4.6
	c-2.1,1.1-4.4,1.6-7.2,1.6h-9.7v-26H95C97.8,25.3,100.2,25.8,102.2,26.9z M100.2,43.8c1.3-1.3,2-3.2,2-5.6c0-2.4-0.7-4.3-2-5.6
	s-3.2-2-5.6-2h-3v15.1h3C97,45.8,98.9,45.1,100.2,43.8z"/>
<path class="st0" d="M118.5,25.3v26h-6.3v-26H118.5z"/>
<path class="st0" d="M140.3,33.5c-0.5-0.9-1.1-1.5-2-2c-0.9-0.5-1.9-0.7-3.1-0.7c-2,0-3.7,0.7-4.9,2s-1.8,3.1-1.8,5.4
	c0,2.4,0.6,4.3,1.9,5.6c1.3,1.3,3.1,2,5.3,2c1.6,0,2.9-0.4,3.9-1.2c1.1-0.8,1.9-1.9,2.3-3.4h-8v-4.7h13.8v5.9
	c-0.5,1.6-1.3,3-2.4,4.4c-1.1,1.4-2.5,2.5-4.3,3.3c-1.7,0.8-3.7,1.3-5.8,1.3c-2.6,0-4.9-0.6-6.9-1.7c-2-1.1-3.6-2.7-4.7-4.7
	s-1.7-4.3-1.7-6.8c0-2.6,0.6-4.9,1.7-6.9c1.1-2,2.7-3.6,4.7-4.7c2-1.1,4.3-1.7,6.8-1.7c3.1,0,5.7,0.8,7.9,2.3
	c2.1,1.5,3.5,3.6,4.2,6.3H140.3z"/>
<path class="st0" d="M157.6,25.3v26h-6.3v-26H157.6z"/>
<path class="st1" d="M188.7,25.3v5.1h-6.9v20.9h-6.3V30.3h-6.9v-5.1H188.7z"/>
<path class="st1" d="M198.2,30.3v5.3h8.5v4.9h-8.5v5.7h9.6v5.1h-15.9v-26h15.9v5.1H198.2z"/>
<path class="st1" d="M212.5,31.4c1.1-2,2.7-3.6,4.6-4.7c2-1.1,4.2-1.7,6.8-1.7c3.1,0,5.7,0.8,7.9,2.4c2.2,1.6,3.7,3.8,4.4,6.7h-7
	c-0.5-1.1-1.3-1.9-2.2-2.5c-0.9-0.6-2-0.9-3.2-0.9c-1.9,0-3.5,0.7-4.7,2s-1.8,3.2-1.8,5.4c0,2.3,0.6,4.1,1.8,5.4s2.8,2,4.7,2
	c1.2,0,2.3-0.3,3.2-0.9c0.9-0.6,1.7-1.4,2.2-2.5h7c-0.7,2.8-2.2,5-4.4,6.6c-2.2,1.6-4.8,2.4-7.9,2.4c-2.5,0-4.8-0.6-6.8-1.7
	c-2-1.1-3.5-2.7-4.6-4.7c-1.1-2-1.7-4.3-1.7-6.8C210.9,35.7,211.4,33.4,212.5,31.4z"/>
<path class="st1" d="M262.6,25.3v26h-6.3V40.6h-9.8v10.7h-6.3v-26h6.3v10.2h9.8V25.3H262.6z"/>
</svg>
