<svg xmlns="http://www.w3.org/2000/svg" xmlns:xlink="http://www.w3.org/1999/xlink" viewBox="0 0 600 455.5"><defs><style>.cls-1{isolation:isolate;}.cls-2{fill:#6ee8fc;}.cls-3,.cls-30,.cls-31,.cls-32,.cls-4,.cls-5{opacity:0.3;}.cls-10,.cls-3,.cls-30,.cls-31,.cls-32,.cls-33,.cls-34,.cls-35,.cls-36,.cls-37,.cls-4,.cls-5,.cls-6,.cls-7,.cls-8,.cls-9{mix-blend-mode:lighten;}.cls-3{fill:url(#Áåçûìÿííûé_ãðàäèåíò_2);}.cls-4{fill:url(#New_Gradient_Swatch);}.cls-5{fill:url(#New_Gradient_Swatch-2);}.cls-6{fill:url(#Áåçûìÿííûé_ãðàäèåíò_6);}.cls-7{fill:url(#Áåçûìÿííûé_ãðàäèåíò_6-2);}.cls-8{fill:url(#Áåçûìÿííûé_ãðàäèåíò_2-2);}.cls-9{fill:url(#Áåçûìÿííûé_ãðàäèåíò_2-3);}.cls-10{fill:url(#Áåçûìÿííûé_ãðàäèåíò_2-4);}.cls-11{fill:#0a0e2d;}.cls-12{fill:#312a91;}.cls-13,.cls-15,.cls-18,.cls-19,.cls-21,.cls-22,.cls-23,.cls-25,.cls-26,.cls-27{opacity:0.5;}.cls-13{fill:url(#Áåçûìÿííûé_ãðàäèåíò_3);}.cls-14{fill:url(#Áåçûìÿííûé_ãðàäèåíò_5);}.cls-15{fill:url(#Áåçûìÿííûé_ãðàäèåíò_3-2);}.cls-16,.cls-22,.cls-28,.cls-29{fill:#5cfff3;}.cls-17{fill:#42e8e0;}.cls-18{fill:url(#Áåçûìÿííûé_ãðàäèåíò_3-3);}.cls-19{fill:url(#Áåçûìÿííûé_ãðàäèåíò_3-4);}.cls-20{fill:#fccc6b;}.cls-21{fill:#0b0244;}.cls-23{fill:url(#Áåçûìÿííûé_ãðàäèåíò_3-5);}.cls-24{fill:url(#Áåçûìÿííûé_ãðàäèåíò_5-2);}.cls-25{fill:url(#Áåçûìÿííûé_ãðàäèåíò_3-6);}.cls-26{fill:url(#Áåçûìÿííûé_ãðàäèåíò_3-7);}.cls-27{fill:url(#Áåçûìÿííûé_ãðàäèåíò_3-8);}.cls-28{opacity:0.2;}.cls-29{opacity:0.6;}.cls-30{fill:url(#New_Gradient_Swatch-3);}.cls-31{fill:url(#New_Gradient_Swatch-4);}.cls-32{fill:url(#New_Gradient_Swatch-5);}.cls-33{fill:url(#Áåçûìÿííûé_ãðàäèåíò_2-5);}.cls-34{fill:url(#Áåçûìÿííûé_ãðàäèåíò_2-6);}.cls-35{fill:url(#Áåçûìÿííûé_ãðàäèåíò_2-7);}.cls-36{fill:url(#Áåçûìÿííûé_ãðàäèåíò_2-8);}.cls-37{fill:url(#Áåçûìÿííûé_ãðàäèåíò_2-9);}</style><radialGradient id="Áåçûìÿííûé_ãðàäèåíò_2" cx="-1076.2" cy="437.4" r="98.53" gradientTransform="matrix(0.87, 0.5, -0.87, 0.5, 1591.05, 570.51)" gradientUnits="userSpaceOnUse"><stop offset="0" stop-color="#42e8e0"/><stop offset="0.01" stop-color="#40ded8"/><stop offset="0.09" stop-color="#34afb4"/><stop offset="0.17" stop-color="#2a8593"/><stop offset="0.26" stop-color="#226278"/><stop offset="0.35" stop-color="#1b4562"/><stop offset="0.44" stop-color="#162f51"/><stop offset="0.54" stop-color="#121f44"/><stop offset="0.66" stop-color="#10163d"/><stop offset="0.82" stop-color="#0f133b"/></radialGradient><radialGradient id="New_Gradient_Swatch" cx="-874.2" cy="488.88" r="98.53" gradientTransform="matrix(0.87, 0.5, -0.87, 0.5, 1591.05, 570.51)" gradientUnits="userSpaceOnUse"><stop offset="0" stop-color="#42e8e0"/><stop offset="0.02" stop-color="#3fe9e2" stop-opacity="0.96"/><stop offset="0.13" stop-color="#30ece9" stop-opacity="0.73"/><stop offset="0.25" stop-color="#23eff0" stop-opacity="0.54"/><stop offset="0.36" stop-color="#18f2f5" stop-opacity="0.38"/><stop offset="0.48" stop-color="#10f4fa" stop-opacity="0.26"/><stop offset="0.59" stop-color="#0af5fd" stop-opacity="0.17"/><stop offset="0.71" stop-color="#06f6fe" stop-opacity="0.12"/><stop offset="0.82" stop-color="#05f6ff" stop-opacity="0.1"/></radialGradient><radialGradient id="New_Gradient_Swatch-2" cx="-1076.43" cy="564.19" r="75.76" xlink:href="#New_Gradient_Swatch"/><radialGradient id="Áåçûìÿííûé_ãðàäèåíò_6" cx="281.35" cy="253.61" r="11.02" gradientTransform="translate(463.53 -78.48) rotate(76.72)" gradientUnits="userSpaceOnUse"><stop offset="0" stop-color="#42e8e0"/><stop offset="0.02" stop-color="#3fd8d7"/><stop offset="0.1" stop-color="#36a9ba"/><stop offset="0.18" stop-color="#2e7fa0"/><stop offset="0.26" stop-color="#275c8b"/><stop offset="0.35" stop-color="#223f79"/><stop offset="0.44" stop-color="#1d296c"/><stop offset="0.54" stop-color="#1a1962"/><stop offset="0.66" stop-color="#19105d"/><stop offset="0.82" stop-color="#180d5b"/></radialGradient><radialGradient id="Áåçûìÿííûé_ãðàäèåíò_6-2" cx="170.27" cy="317.87" r="11.02" gradientTransform="matrix(1, 0, 0, 1, 0, 0)" xlink:href="#Áåçûìÿííûé_ãðàäèåíò_6"/><radialGradient id="Áåçûìÿííûé_ãðàäèåíò_2-2" cx="411.37" cy="377.63" r="11.02" gradientTransform="matrix(1, 0, 0, 1, 0, 0)" xlink:href="#Áåçûìÿííûé_ãðàäèåíò_2"/><radialGradient id="Áåçûìÿííûé_ãðàäèåíò_2-3" cx="431.79" cy="365.6" r="11.02" gradientTransform="matrix(1, 0, 0, 1, 0, 0)" xlink:href="#Áåçûìÿííûé_ãðàäèåíò_2"/><radialGradient id="Áåçûìÿííûé_ãðàäèåíò_2-4" cx="452.21" cy="353.75" r="11.02" gradientTransform="matrix(1, 0, 0, 1, 0, 0)" xlink:href="#Áåçûìÿííûé_ãðàäèåíò_2"/><linearGradient id="Áåçûìÿííûé_ãðàäèåíò_3" x1="120.35" y1="279.18" x2="394.29" y2="279.18" gradientUnits="userSpaceOnUse"><stop offset="0" stop-color="#42e8e0"/><stop offset="0.1" stop-color="#3ccace"/><stop offset="0.34" stop-color="#2f87a5"/><stop offset="0.56" stop-color="#255385"/><stop offset="0.75" stop-color="#1e2d6e"/><stop offset="0.91" stop-color="#1a1660"/><stop offset="1" stop-color="#180d5b"/></linearGradient><linearGradient id="Áåçûìÿííûé_ãðàäèåíò_5" x1="317.87" y1="279.18" x2="454.84" y2="279.18" gradientUnits="userSpaceOnUse"><stop offset="0" stop-color="#2b237c"/><stop offset="1" stop-color="#180d5b"/></linearGradient><linearGradient id="Áåçûìÿííûé_ãðàäèåíò_3-2" x1="180.91" y1="248.92" x2="454.86" y2="248.92" xlink:href="#Áåçûìÿííûé_ãðàäèåíò_3"/><linearGradient id="Áåçûìÿííûé_ãðàäèåíò_3-3" x1="180.91" y1="248.93" x2="320.73" y2="248.93" xlink:href="#Áåçûìÿííûé_ãðàäèåíò_3"/><linearGradient id="Áåçûìÿííûé_ãðàäèåíò_3-4" x1="218.17" y1="328.64" x2="447.47" y2="178.76" xlink:href="#Áåçûìÿííûé_ãðàäèåíò_3"/><linearGradient id="Áåçûìÿííûé_ãðàäèåíò_3-5" x1="120.35" y1="196.38" x2="394.29" y2="196.38" xlink:href="#Áåçûìÿííûé_ãðàäèåíò_3"/><linearGradient id="Áåçûìÿííûé_ãðàäèåíò_5-2" x1="317.87" y1="196.37" x2="454.84" y2="196.37" xlink:href="#Áåçûìÿííûé_ãðàäèåíò_5"/><linearGradient id="Áåçûìÿííûé_ãðàäèåíò_3-6" x1="180.91" y1="166.12" x2="454.86" y2="166.12" xlink:href="#Áåçûìÿííûé_ãðàäèåíò_3"/><linearGradient id="Áåçûìÿííûé_ãðàäèåíò_3-7" x1="180.91" y1="166.12" x2="320.73" y2="166.12" xlink:href="#Áåçûìÿííûé_ãðàäèåíò_3"/><linearGradient id="Áåçûìÿííûé_ãðàäèåíò_3-8" x1="218.17" y1="245.83" x2="447.47" y2="95.96" xlink:href="#Áåçûìÿííûé_ãðàäèåíò_3"/><radialGradient id="New_Gradient_Swatch-3" cx="-1244.54" cy="269.06" r="98.53" xlink:href="#New_Gradient_Swatch"/><radialGradient id="New_Gradient_Swatch-4" cx="-1042.54" cy="320.55" r="98.53" xlink:href="#New_Gradient_Swatch"/><radialGradient id="New_Gradient_Swatch-5" cx="-1244.77" cy="395.86" r="75.76" xlink:href="#New_Gradient_Swatch"/><radialGradient id="Áåçûìÿííûé_ãðàäèåíò_2-5" cx="281.35" cy="85.27" r="11.02" gradientTransform="matrix(1, 0, 0, 1, 0, 0)" xlink:href="#Áåçûìÿííûé_ãðàäèåíò_2"/><radialGradient id="Áåçûìÿííûé_ãðàäèåíò_2-6" cx="170.27" cy="149.53" r="11.02" gradientTransform="matrix(1, 0, 0, 1, 0, 0)" xlink:href="#Áåçûìÿííûé_ãðàäèåíò_2"/><radialGradient id="Áåçûìÿííûé_ãðàäèåíò_2-7" cx="411.37" cy="209.3" r="11.02" gradientTransform="translate(111.41 -141.49) rotate(22.5)" xlink:href="#Áåçûìÿííûé_ãðàäèåíò_2"/><radialGradient id="Áåçûìÿííûé_ãðàäèåíò_2-8" cx="431.79" cy="197.26" r="11.02" gradientTransform="matrix(1, 0, 0, 1, 0, 0)" xlink:href="#Áåçûìÿííûé_ãðàäèåíò_2"/><radialGradient id="Áåçûìÿííûé_ãðàäèåíò_2-9" cx="452.21" cy="185.41" r="11.02" gradientTransform="matrix(1, 0, 0, 1, 0, 0)" xlink:href="#Áåçûìÿííûé_ãðàäèåíò_2"/></defs><g class="cls-1"><g id="illustration"><path class="cls-2" d="M316.63,427.32a25.46,25.46,0,0,1-12.5-2.87l-146-84.27c-3.26-1.89-5.06-4.51-5.06-7.38,0-3.45,2.59-6.92,7.11-9.53l141.86-81.91c8.49-4.9,21.38-5.43,28.74-1.18l146,84.27c3.27,1.89,5.06,4.51,5.06,7.38,0,3.45-2.59,6.92-7.1,9.53L332.87,423.27A33.35,33.35,0,0,1,316.63,427.32Zm1.69-189.47a32.82,32.82,0,0,0-16,4l-141.86,81.9c-4.34,2.51-6.83,5.81-6.83,9.06,0,2.67,1.7,5.12,4.78,6.91L304.4,424c7.22,4.16,19.86,3.63,28.2-1.19l141.86-81.9c4.35-2.51,6.84-5.81,6.84-9.06,0-2.67-1.7-5.12-4.79-6.9l-146-84.27A24.87,24.87,0,0,0,318.32,237.85Z"/><ellipse class="cls-3" cx="280.27" cy="251.11" rx="120.67" ry="69.67"/><ellipse class="cls-4" cx="410.62" cy="377.85" rx="120.67" ry="69.67"/><ellipse class="cls-5" cx="170.27" cy="314.39" rx="92.78" ry="53.57"/><circle class="cls-6" cx="281.35" cy="253.61" r="11.02" transform="translate(-30.12 469.16) rotate(-76.72)"/><path class="cls-2" d="M284.49,253.61a3.14,3.14,0,1,1-3.14-3.14A3.15,3.15,0,0,1,284.49,253.61Z"/><circle class="cls-7" cx="170.27" cy="317.87" r="11.02"/><path class="cls-2" d="M173.41,317.87a3.14,3.14,0,1,1-3.14-3.14A3.15,3.15,0,0,1,173.41,317.87Z"/><circle class="cls-8" cx="411.37" cy="377.63" r="11.02"/><circle class="cls-2" cx="411.37" cy="377.63" r="3.14"/><circle class="cls-9" cx="431.79" cy="365.6" r="11.02"/><path class="cls-2" d="M434.93,365.6a3.14,3.14,0,1,1-3.14-3.14A3.14,3.14,0,0,1,434.93,365.6Z"/><circle class="cls-10" cx="452.21" cy="353.75" r="11.02"/><path class="cls-2" d="M455.35,353.75a3.14,3.14,0,1,1-3.14-3.14A3.14,3.14,0,0,1,455.35,353.75Z"/><path class="cls-11" d="M303.57,400.21l-104-60.06c-7.91-4.56-6.92-12.54,2.21-17.81l99.59-57.5c9.13-5.27,22.94-5.84,30.84-1.28l104,60.06c7.91,4.57,6.91,12.54-2.21,17.81l-99.6,57.5C325.28,404.2,311.48,404.77,303.57,400.21Z"/><path class="cls-12" d="M454.82,270.43V248.92H399.33l-65.6-37.87c-8.75-5.06-24-4.42-34.15,1.41l-63.15,36.46H180.91v22.73h0c-.25,3.42,1.66,6.72,5.87,9.15L302,347.32c8.76,5.05,24.05,4.42,34.16-1.42L446.5,282.22C452.33,278.85,455.14,274.49,454.82,270.43Z"/><path class="cls-13" d="M454.82,270.43V248.92H399.33l-65.6-37.87c-8.75-5.06-24-4.42-34.15,1.41l-63.15,36.46H180.91v22.73h0c-.25,3.42,1.66,6.72,5.87,9.15L302,347.32c8.76,5.05,24.05,4.42,34.16-1.42L446.5,282.22C452.33,278.85,455.14,274.49,454.82,270.43Z"/><path class="cls-14" d="M333.73,211.05c-4.21-2.43-9.93-3.53-15.86-3.39v143a39.39,39.39,0,0,0,18.32-4.81L446.5,282.22c5.83-3.37,8.64-7.73,8.32-11.79V248.92H399.33Z"/><path class="cls-12" d="M302,324.59,186.82,258.07c-8.76-5-7.66-13.88,2.45-19.72l110.31-63.68c10.11-5.84,25.4-6.48,34.15-1.42L449,239.77c8.76,5,7.66,13.88-2.45,19.72L336.19,323.18C326.08,329,310.79,329.65,302,324.59Z"/><path class="cls-15" d="M302,324.59,186.82,258.07c-8.76-5-7.66-13.88,2.45-19.72l110.31-63.68c10.11-5.84,25.4-6.48,34.15-1.42L449,239.77c8.76,5,7.66,13.88-2.45,19.72L336.19,323.18C326.08,329,310.79,329.65,302,324.59Z"/><path class="cls-16" d="M305.11,309.89l-92.83-53.6c-7.05-4.07-6.17-11.18,2-15.88l88.87-51.32c8.15-4.7,20.47-5.21,27.52-1.14l92.84,53.6c7.05,4.07,6.16,11.18-2,15.89l-88.88,51.31C324.49,313.45,312.17,314,305.11,309.89Z"/><path class="cls-17" d="M214.26,247.36,303.13,196c8.15-4.7,20.47-5.21,27.52-1.14l92.84,53.6a10.36,10.36,0,0,1,3.77,3.49c2.05-3.76.87-7.76-3.77-10.44L330.65,188c-7-4.07-19.37-3.56-27.52,1.14l-88.87,51.32c-6.14,3.54-8.15,8.44-5.76,12.39A14.72,14.72,0,0,1,214.26,247.36Z"/><path class="cls-18" d="M305.9,324.59,190.68,258.07c-8.75-5-10.84-12.48,2.46-19.72l110.31-63.68a39,39,0,0,1,17.28-4.78,40.09,40.09,0,0,0-21.15,4.78L189.27,238.35c-10.11,5.84-11.21,14.67-2.45,19.72L302,324.59c4.45,2.57,10.59,3.66,16.88,3.36A29,29,0,0,1,305.9,324.59Z"/><path class="cls-19" d="M446.5,269.1,336.19,332.78c-10.11,5.84-25.4,6.47-34.16,1.42L186.82,267.68c-4.21-2.43-6.12-5.73-5.87-9.15h0v4.71h0c-.25,3.42,1.66,6.72,5.87,9.15L302,338.91c8.76,5,24.05,4.42,34.16-1.42L446.5,273.81c5.83-3.37,8.64-7.73,8.32-11.79v-4.71C455.14,261.37,452.33,265.73,446.5,269.1Z"/><path class="cls-20" d="M426.49,262.82c1.26.73,1.26,1.91,0,2.63a5,5,0,0,1-4.55,0c-1.26-.72-1.26-1.9,0-2.63A5.06,5.06,0,0,1,426.49,262.82Z"/><path class="cls-20" d="M433.59,258.73a1.39,1.39,0,0,1,0,2.63,5,5,0,0,1-4.56,0,1.39,1.39,0,0,1,0-2.63A5,5,0,0,1,433.59,258.73Z"/><path class="cls-20" d="M440.68,254.64a1.38,1.38,0,0,1,0,2.62,5,5,0,0,1-4.56,0,1.38,1.38,0,0,1,0-2.62A5,5,0,0,1,440.68,254.64Z"/><path class="cls-21" d="M307.87,296.91l-72.82-42c-5.54-3.2-4.84-8.78,1.55-12.47l69.71-40.25c6.39-3.68,16.06-4.09,21.59-.89l72.82,42c5.53,3.2,4.84,8.78-1.55,12.46L329.45,296C323.06,299.7,313.4,300.1,307.87,296.91Z"/><path class="cls-22" d="M454.82,248.92a8.28,8.28,0,0,0,0-1.22V187.63l-95.45.42-25.64-14.8c-8.75-5.06-24-4.42-34.15,1.42l-23.83,13.75-94.84.42v60.08h0c-.25,3.42,1.66,6.72,5.87,9.15L302,324.59c8.76,5.06,24.05,4.42,34.16-1.41L446.5,259.49c5.25-3,8.05-6.87,8.32-10.57Z"/><path class="cls-12" d="M454.82,187.63V166.12H399.33l-65.6-37.87c-8.75-5.06-24-4.43-34.15,1.41l-63.15,36.46H180.91v22.72h0c-.25,3.43,1.66,6.73,5.87,9.16L302,264.52c8.76,5.05,24.05,4.42,34.16-1.42L446.5,199.41C452.33,196.05,455.14,191.69,454.82,187.63Z"/><path class="cls-23" d="M454.82,187.63V166.12H399.33l-65.6-37.87c-8.75-5.06-24-4.43-34.15,1.41l-63.15,36.46H180.91v22.72h0c-.25,3.43,1.66,6.73,5.87,9.16L302,264.52c8.76,5.05,24.05,4.42,34.16-1.42L446.5,199.41C452.33,196.05,455.14,191.69,454.82,187.63Z"/><path class="cls-24" d="M333.73,128.25c-4.21-2.43-9.93-3.54-15.86-3.39v143a39.39,39.39,0,0,0,18.32-4.8L446.5,199.41c5.83-3.36,8.64-7.72,8.32-11.78V166.12H399.33Z"/><path class="cls-12" d="M302,241.79,186.82,175.27c-8.76-5.05-7.66-13.88,2.45-19.72L299.58,91.86c10.11-5.83,25.4-6.47,34.15-1.41L449,157c8.76,5.05,7.66,13.88-2.45,19.72L336.19,240.38C326.08,246.21,310.79,246.85,302,241.79Z"/><path class="cls-25" d="M302,241.79,186.82,175.27c-8.76-5.05-7.66-13.88,2.45-19.72L299.58,91.86c10.11-5.83,25.4-6.47,34.15-1.41L449,157c8.76,5.05,7.66,13.88-2.45,19.72L336.19,240.38C326.08,246.21,310.79,246.85,302,241.79Z"/><path class="cls-26" d="M305.9,241.79,190.68,175.27c-8.75-5.05-10.84-12.48,2.46-19.72L303.45,91.86a39.11,39.11,0,0,1,17.28-4.77,40.08,40.08,0,0,0-21.15,4.77L189.27,155.55c-10.11,5.84-11.21,14.67-2.45,19.72L302,241.79c4.45,2.57,10.59,3.66,16.88,3.36A29.09,29.09,0,0,1,305.9,241.79Z"/><path class="cls-27" d="M446.5,186.29,336.19,250c-10.11,5.84-25.4,6.47-34.16,1.42L186.82,184.88c-4.21-2.43-6.12-5.73-5.87-9.15h0v4.7h0c-.25,3.43,1.66,6.73,5.87,9.16L302,256.11c8.76,5.05,24.05,4.42,34.16-1.42L446.5,191c5.83-3.36,8.64-7.72,8.32-11.78v-4.71C455.14,178.57,452.33,182.93,446.5,186.29Z"/><path class="cls-28" d="M308.72,170.93c2.39,1.39,2.39,3.63,0,5a9.57,9.57,0,0,1-8.66,0c-2.4-1.39-2.4-3.62,0-5A9.57,9.57,0,0,1,308.72,170.93Z"/><path class="cls-29" d="M322.22,163.14c2.39,1.38,2.39,3.62,0,5a9.6,9.6,0,0,1-8.67,0c-2.39-1.39-2.39-3.63,0-5A9.6,9.6,0,0,1,322.22,163.14Z"/><path class="cls-16" d="M335.71,155.35c2.39,1.38,2.39,3.62,0,5a9.51,9.51,0,0,1-8.66,0c-2.4-1.38-2.4-3.62,0-5A9.57,9.57,0,0,1,335.71,155.35Z"/><path class="cls-21" d="M317.13,225.44a23.25,23.25,0,0,1-11.4-2.62l-85.19-49.18c-3.1-1.79-4.81-4.31-4.81-7.09,0-3.29,2.42-6.57,6.62-9l81.56-47.09c7.71-4.44,19.43-4.91,26.13-1l85.19,49.19c3.1,1.79,4.8,4.3,4.8,7.09,0,3.29-2.41,6.57-6.61,9l-81.57,47.09A30.28,30.28,0,0,1,317.13,225.44Zm-10.53-4.12c6.22,3.59,17.16,3.12,24.38-1l81.57-47.09c3.65-2.11,5.75-4.84,5.75-7.49,0-2.14-1.4-4.12-3.94-5.58l-85.19-49.19c-6.22-3.59-17.16-3.12-24.39,1l-81.56,47.09c-3.65,2.11-5.75,4.84-5.75,7.49,0,2.13,1.4,4.12,3.94,5.58Z"/><path class="cls-2" d="M316.63,259a25.46,25.46,0,0,1-12.5-2.87l-146-84.27c-3.26-1.88-5.06-4.5-5.06-7.37,0-3.45,2.59-6.93,7.11-9.54L302.08,73c8.49-4.91,21.38-5.43,28.74-1.18l146,84.27c3.27,1.88,5.06,4.5,5.06,7.37,0,3.45-2.59,6.93-7.1,9.54l-141.87,81.9A33.35,33.35,0,0,1,316.63,259Zm1.69-189.47a32.82,32.82,0,0,0-16,4L160.49,155.41c-4.34,2.5-6.83,5.81-6.83,9.06,0,2.66,1.7,5.12,4.78,6.9l146,84.27c7.22,4.16,19.86,3.63,28.2-1.18l141.86-81.91c4.35-2.51,6.84-5.81,6.84-9.06,0-2.67-1.7-5.12-4.79-6.9l-146-84.27A25,25,0,0,0,318.32,69.51Z"/><ellipse class="cls-30" cx="280.27" cy="82.77" rx="120.67" ry="69.67"/><ellipse class="cls-31" cx="410.62" cy="209.51" rx="120.67" ry="69.67"/><ellipse class="cls-32" cx="170.27" cy="146.05" rx="92.78" ry="53.57"/><circle class="cls-33" cx="281.35" cy="85.27" r="11.02"/><path class="cls-2" d="M284.49,85.27a3.14,3.14,0,1,1-3.14-3.14A3.14,3.14,0,0,1,284.49,85.27Z"/><circle class="cls-34" cx="170.27" cy="149.53" r="11.02"/><circle class="cls-2" cx="170.27" cy="149.53" r="3.14"/><circle class="cls-35" cx="411.37" cy="209.3" r="11.02" transform="translate(-48.78 173.36) rotate(-22.5)"/><path class="cls-2" d="M414.51,209.3a3.14,3.14,0,1,1-3.14-3.15A3.15,3.15,0,0,1,414.51,209.3Z"/><circle class="cls-36" cx="431.79" cy="197.26" r="11.02"/><circle class="cls-2" cx="431.79" cy="197.26" r="3.14"/><circle class="cls-37" cx="452.21" cy="185.41" r="11.02"/><path class="cls-2" d="M455.35,185.41a3.14,3.14,0,1,1-3.14-3.14A3.14,3.14,0,0,1,455.35,185.41Z"/></g></g></svg>